<svg width="51" height="51" viewBox="0 0 51 51" fill="none" xmlns="http://www.w3.org/2000/svg">
<g filter="url(#filter0_d_2_4)">
<path fill-rule="evenodd" clip-rule="evenodd" d="M45.83 34.201V39.034C45.83 40.314 44.792 41.354 43.51 41.354H33.712C32.431 41.354 31.392 40.314 31.392 39.034V32.864C31.392 31.584 30.354 30.544 29.072 30.544H21.76C20.478 30.544 19.44 31.584 19.44 32.864V39.034C19.44 40.314 18.401 41.354 17.12 41.354H7.32C6.039 41.354 5 40.314 5 39.034V20.036C5 19.046 5.421 18.103 6.159 17.443L23.869 1.591C24.749 0.803 26.082 0.803 26.963 1.591L44.672 17.443C45.409 18.103 45.831 19.046 45.831 20.036V34.201H45.83Z" stroke="#ADADAD" stroke-width="2" shape-rendering="crispEdges"/>
</g>
<defs>
<filter id="filter0_d_2_4" x="0" y="0" width="50.831" height="50.354" filterUnits="userSpaceOnUse" color-interpolation-filters="sRGB">
<feFlood flood-opacity="0" result="BackgroundImageFix"/>
<feColorMatrix in="SourceAlpha" type="matrix" values="0 0 0 0 0 0 0 0 0 0 0 0 0 0 0 0 0 0 127 0" result="hardAlpha"/>
<feOffset dy="4"/>
<feGaussianBlur stdDeviation="2"/>
<feComposite in2="hardAlpha" operator="out"/>
<feColorMatrix type="matrix" values="0 0 0 0 0 0 0 0 0 0 0 0 0 0 0 0 0 0 0.25 0"/>
<feBlend mode="normal" in2="BackgroundImageFix" result="effect1_dropShadow_2_4"/>
<feBlend mode="normal" in="SourceGraphic" in2="effect1_dropShadow_2_4" result="shape"/>
</filter>
</defs>
</svg>
