<svg width="37" height="45" viewBox="0 0 37 45" fill="none" xmlns="http://www.w3.org/2000/svg">
<path fill-rule="evenodd" clip-rule="evenodd" d="M25.5712 24.4797C21.6662 28.2097 15.3342 28.2097 11.4292 24.4797C7.5242 20.7477 7.5242 14.6967 11.4292 10.9657C15.3342 7.23375 21.6662 7.23375 25.5712 10.9657C29.4762 14.6967 29.4762 20.7478 25.5712 24.4788V24.4797ZM29.9612 4.99775C23.4352 -0.334249 13.5582 -0.33225 7.0342 5.00175C-0.0328016 10.7797 -0.891802 20.4858 4.4542 27.2218L16.5182 43.0438C17.4902 44.3188 19.5092 44.3188 20.4812 43.0438L32.5472 27.2227C37.8932 20.4857 37.0312 10.7758 29.9612 4.99775V4.99775Z" stroke="#ADADAD" stroke-width="2"/>
</svg>
