<svg width="43" height="36" viewBox="0 0 43 36" fill="none" xmlns="http://www.w3.org/2000/svg">
<path fill-rule="evenodd" clip-rule="evenodd" d="M29.343 28.549C33.454 25.319 37.105 21.463 39.585 16.978L39.694 16.778L39.889 16.411C40.611 14.977 41.016 13.356 41.016 11.641C41.016 5.764 36.252 1 30.375 1C26.399 1 22.927 3.184 21.1 6.415C21.068 6.471 21.049 6.514 21.005 6.514C20.956 6.514 20.946 6.474 20.915 6.42C19.09 3.184 15.62 1 11.641 1C5.764 1 1 5.764 1 11.641C1 13.15 1.314 14.586 1.881 15.887L1.899 15.987C1.899 15.987 6.095 25.729 20.634 33.822L21.008 33.991L21.355 33.822C24.082 32.304 26.801 30.546 29.343 28.549V28.549Z" stroke="#ADADAD" stroke-width="2"/>
</svg>
